<svg xmlns="http://www.w3.org/2000/svg" xmlns:xlink="http://www.w3.org/1999/xlink" width="1440" height="1218" fill="none" xmlns:v="https://vecta.io/nano"><style><![CDATA[.B{fill:#de7588}.C{opacity:.3}.D{fill:#ffbbac}.E{fill:#ffaa96}.F{fill:#c55f71}.G{fill-rule:evenodd}]]></style><ellipse opacity=".8" cx="723.41" cy="766.325" rx="167" ry="167.5" fill="url(#B)"/><path d="M581.316 352.672c1.26 22.27 51.648 39.743 76.684 45.696l-987.38 84.81c-3.797-178.476-3.338-546.3 28.873-589.837 40.263-54.4 94.13-53.865 138.202-44.616s11.425 107.73 52.233 91.952 32.1 41.352 85.967 20.676S58.598-3.823 61.863 13.588s19.587 32.102 50.6 26.346 54.132-3.15 76.193 0c17.648 2.52 21.22 27.103 20.8 39.078 3.572-5.673 15.885-17.522 36.558-19.54 25.843-2.52 32.145 22.69 35.297 34.036s32.775 15.127 49.793 23.32 9.455 47.272 74.375 67.442 75.744 75.97 93.197 87.605 32.383-13.962 36.65 11.053 11.44 26.566 26.76 32.2 17.656 9.715 19.232 37.552z" fill="url(#C)" class="C"/><g class="C"><use xlink:href="#S" fill="url(#D)"/><use xlink:href="#S" fill="url(#E)"/><path d="M29.612 609.177c-12.777-9.402-24.208 1.908-28.326 8.74l-2.4 107.88c36.663-9.543 107.277-33.208 96.43-51.53-13.56-22.902-43.393-22.6-50.324-24.107s.603-29.23-15.37-40.982z" fill="url(#F)"/><path d="M788.43 763.107c-80.474 8.498-82.86 73.654-73.992 105.17l303.303-55.922 432.46-51.465c4.74-145.74 11.4-438.553 0-443.87-11.4-5.317-16.68 4.3-17.9 9.775-19.34 7.194-25.28 25.415-25.84 33.626-19.54-4.692-29.14 4.69-37.76 23.07-8.6 18.377-37.42 10.947-28.8-18.378 6.9-23.46-11.93-31.93-22.2-33.234 5.85-1.825 11.8-9.932-11.27-27.76-28.8-22.287-63.92-9.384-70.88 19.55-5.56 23.147 12.92 37.276 22.86 41.446-31.47 16.813-30.8 37.145-15.9 48.484s44.38 45.747 5.96 44.965c-30.74-.626-39.3 21.635-39.75 32.843-22.52-16.42-54.98-7.82-54 19.16.8 21.583-11.8 25.154-18.2 24.242-93.54-.313-99.48 57.216-90.76 86.02-31.14 4.692-39.75 17.203-41.26 29.324-1.52 12.12-29.623 40.722-53.14 23.07-18.813-14.122-35.22-10.055-41.072-6.256-2.384 14.39-17.892 21.935-25.348 23.91-64.45-8.498-91.202 44.617-96.52 72.237z" class="D"/><path d="M849.877 894.8c1.26 22.27 51.648 39.743 76.684 45.696l-987.38 84.813C-64.615 846.833-64.156 479-31.946 435.47c40.263-54.4 94.13-53.865 138.202-44.615s11.426 107.73 52.233 91.952 32.1 41.35 85.967 20.676 82.704 34.822 85.968 52.233 19.587 32.102 50.6 26.347 54.132-3.152 76.192 0c17.648 2.52 21.22 27.102 20.8 39.078 3.572-5.673 15.884-17.522 36.558-19.54 25.842-2.52 32.145 22.69 35.296 34.036s32.776 15.127 49.794 23.32 9.454 47.272 74.375 67.44 75.744 75.97 93.196 87.605 32.384-13.962 36.65 11.053 11.44 26.567 26.76 32.2 17.656 9.715 19.23 37.552z" fill="url(#G)"/></g><g class="D"><path d="M1031.88 623.065c-45.293-.81-57.965 43.476-58.64 65.72v54.508l605.7-7.415c-34.82-118.44-108.18-357.095-123.06-364.196-18.6-8.877-38.25 6.34-41.2 18.81s-18.17 16.274-28.74 19.444-13.95 6.763-16.53 21.768c-2.06 12.004-17.74 30.645-25.32 38.464l-17.75 3.382c-1.06 37.62-147.85 101.996-194.36 111.095s-43.48 39.432-100.1 38.42z" class="C"/><path d="M1362.4 545.895l29-27 37.5 71 15-11 .5 35-38-40-44-28z"/></g><path d="M1087.9 624.895l32 30-32 59-84 56.5L917 786l31.4-89.105 31-2 50.5-82.5 27.5 15.5 12 16 18.5-19z" class="E"/><path d="M1087.6 625.612l-18.2 18.283-4.07-5.42-16.6 9.59-25.5-24.813-34.92 71.643-36.887 8.768-30.044 66.732 27-73.5 31-2 50.5-82.5 27.5 15.5 7.93 10.58 22.26-12.862z" fill="url(#H)"/><path d="M1026.4 637.395l3.5-25 27.5 14.5 12 17 18.5-19 13 12.5-61.5 80.5-10-14-1-11.5 4.5-12-18.5 5 10.5-27.5-8 1.5 15-19-5.5-3zM512.3 743.813l39.803-15.795 11.372 99.192-3.16 1.895-48.016-85.292z" class="B"/><path d="M552.102 728.018l-20.85 30.958 8.213 48.648 16.427 36.012 87.82 10.74-22.113-25.272-25.272-44.226-44.225-56.86z" class="D"/><path d="M432.06 673.684l31.6-27.8 12.004 98.56-3.16 1.895-40.435-72.656zm-113.722-45.49l-13.9-44.858 21.48 98.56 25.903-1.895 10.1-97.296-43.594 45.5zM160.4 577.65l51.807-58.756L223.57 598.5l-22.744 59.4-24.008-17.7L125 676.843.546 759.608l-53.07 1.895-4.423-51.175 19.586-20.85L.546 672.42l32.22 1.896L83.3 618.718l45.5-41.067 3.8 34.75 27.8-34.75z" class="B"/><path d="M112.374 664.84l63.81-54.335 39.17 125.095-66.338-5.686L-51.26 813.3l-3.16-48.648 33.485-30.958 87.188-44.857 46.12-24.008z" class="F"/><path d="M89.63 728.018l42.33-27.167 44.858 88.45-236.29 73.92 7.58-63.81 104.878-55.598 36.644-15.795z" class="B"/><use xlink:href="#T" fill="#ecca87"/><use xlink:href="#T" class="D"/><path d="M189.453 734.968l-43.594 39.17 369.6 89.715 169.952 4.422-47.384-54.966-13.9-11.372-31.6 22.744-30.958-47.384-27.167 6.95-24.64-6.95-11.373-15.163-25.27 5.054-29.695-22.113-24.64-24.008-15.164-2.527-11.372-12.636-27.167 39.17h-27.8l-6.318-12.004-17.058-4.422-15.163-15.163-43.594 41.698-7.58-10.1-24-19.585-15.163 15.795-18.953-6.318zm123.2-41.068l-20.217 10.74 17.058-2.528 6.318 10.1 17.06-10.1 24.64 8.846-24.64-23.377-17.06 10.74-3.16-4.423zM220.4 603.555l-14.53-24.64-5.686 47.384 8.213 8.214H220.4l26.536 15.794 25.903 25.272-15.795-29.062-29.062-25.272-10.74-8.213 3.158-9.477zM171.762 693.9l2.528-44.225 20.85 18.322 15.163-5.686 66.338 66.97-66.338-41.7-16.427 3.8 3.8 6.95-12.636-4.423h-13.268z" class="E"/><path d="M158.495 665.47l15.795-15.795-2.528 44.225-10.108-1.263-10.11-8.214-20.217 9.477 12.004-15.795 20.85-10.108-5.686-2.527z" fill="#b44b5d"/><path d="M205.248 551.748l6.95-32.853 16.427 20.85 2.527 12.004 27.167 21.48-15.163-5.686-20.217.63-1.896-15.163-8.845-3.8-6.95 2.527z" fill="#ffcdc2"/><path d="M175.553 583.97l13.268 8.845 5.054 6.95-12.636-4.422-5.686 2.527-4.422-1.896-20.85 7.582 25.272-19.586zM58.67 649.676l23.376-20.85 32.853 17.7-25.903-8.213-5.686.63-4.422 4.423-20.217 6.318z" class="F"/><path d="M67.517 708.433l-19.586 13.9 16.427-4.422 13.9 4.422-10.74-13.9z" fill="#b44b5d"/><path d="M274.113 657.257l5.054 12.004 6.318-.63 20.85 15.163-15.795-18.322-16.426-8.214zM162.917 597.87L128.8 577.65l-10.74 24.64 20.217 17.06 24.64-21.48z" class="E"/><path d="M1276.9 530.395l-21.5-14.5-5.5 19.5 6.5 17.5 20.5-22.5z" class="B"/><use xlink:href="#U" fill="#ecca87"/><use xlink:href="#U" class="D"/><use xlink:href="#V" fill="#f6d99f"/><use xlink:href="#V" class="E"/><path d="M1111.92 665.556l125.66-44.18-4.02 94.67-168.65 17.848 47-68.34z" fill="#ffe7b7"/><path d="M1111.92 665.556l125.66-44.18-4.02 94.67-168.65 17.848 47-68.34z" fill="#ff9a83"/><path d="M1401.34 566.597l-74.46-94.413-30.97 92.21-12.75-12.425-9.48 69.148h-35.9l-31.9 85.105 276.6 30.585-7.98-101.063-30.6-57.18V606.5l-52.73-87.764 10.18 47.87z" class="B"/><path d="M1299.9 648.395l-63.5 56.5 161.5 27 64-36-11-27-47.5-38-19.5 7.5-30-28.5-45.5 42.5-8.5-4z" class="F"/><mask id="A" mask-type="alpha" maskUnits="userSpaceOnUse" x="681" y="701" width="1165" height="562"><path d="M1346.86 704.613c-275.83-31.197-652.464 182.03-665.736 185.82v371.606H1839.56l6.14-544.1c-104.5-39.252-277.42 11.718-498.84-13.327z" fill="url(#I)"/></mask><g mask="url(#A)"><path d="M738.41 628.825h732v388h-732z" class="D"/><path fill="url(#J)" fill-opacity=".4" d="M738.41 628.825h732v388h-732z"/><g class="B"><path d="M846.96 773.265l-3.387-6.94-9.063 30.325 12.45-23.385zm55.9-27.788l-3.387-6.94-9.064 30.324 12.45-23.384zm-17.463 3.796l-3.387-6.94-9.064 30.324 12.45-23.384zm-16.703 7.29l-3.387-6.94-9.064 30.324 12.45-23.384zm80.002-27.636l-31.736 1.063-6.05 35.836 7-17.5 5.5 5.5 6-16.5 7.5 11 11.787-19.4zm41.5-30.1l-31.736 1.063-6.05 35.837 7-17.5-2.5 15.6 14-26.6 4.5 15.1 14.787-23.5zm35.004-10l-31.74 1.063-3.55 20.937 4.5-2.6-3.5 14.6 17-21-3.5 13.5 20.8-26.5z"/></g></g><path d="M268.632 768.442c6.57.117 13.158.36 19.754.74l39.338 3.965a405.81 405.81 0 0 1 28.809 5.261l25.69 6.623 78.772 21.96 9.156 2.403 56.22 14.015c104 24.71 211.784 43.34 315.31 48.796l67.468 1.146 75.956-2.758.983-.055 21.733-1.016c168.44-6.43 302.85 22.092 376.14 52.003 63.1 25.756-52.05 186.735-117.52 264.005H-2.1V828.16a255.97 255.97 0 0 1 11.097-5.624l20.74-9.127 1.943-.787 32.436-11.807 3.202-1.047 61.816-16.686 5.572-1.196 82.223-11.867 4.335-.316 47.358-1.26z" fill="url(#K)" class="G"/><path fill="url(#L)" d="M-127.6 936.466h1647v212.77h-1647z" style="mix-blend-mode:soft-light"/><path opacity=".2" d="M681.9 964.026c-78-18-159.5 52.304-162 52.804l454.5 89.2 442-50.2c-44-49.67-70-152.488-272-163.504-94.42-5.15-203.5 38.2-262.5 71.7s-122 18-200 0z" fill="#ff7051"/><path d="M1474.72 881.977h-14.24L1487 775.85l15.95 62.826 10.12-40.492 10.15-2.537-8.95-2.27 6.17-24.67 15.3 60.217-15.1 3.83 17.15 4.285.28 1.105 19.16-76.64 19.06 75.097c129.93-64.176 93.95 297.54 59.18 446.27L910.99 1403.3 461.855 1152c5.542-1.04 35.947-13.2 80.33-30.97 126.892-50.8 368.045-147.302 469.056-160.177 23.9-3.044 51.4-5.842 81.4-8.897 111.1-11.308 256.8-26.135 382.07-69.99z" fill="url(#M)" class="G"/><path d="M354.9 598.395l7-15.5 19 22.5-12.5-6.5-2.5 2-5-5.5-6 3z" fill="#ffcdc2"/><path d="M-6.6 1109.83h1455v415H-6.6z" class="B"/><path d="M1334.4 497.325l-14.5-3.5 7-21.5 22.5 28.5-13-7-2 3.5zm-23 20.822l-10.5 31 14-6.322 6.5 7.5 14-11 12 13 23.5 12.5-35.5-36.5-13 3-11-13.178z" fill="#ea8194"/><path d="M1303.9 494.325l16-.5 7-22-23 22.5z" fill="#fce8e3"/><path d="M1316.9 586.825l-33.5-36-3.5 25 6-1.5 3.5 4.5 8.5-1.5 19 9.5zm88.5 0l-21 11-5 3h16l4 3 6-3 23 9.5-23-23.5z" fill="#ea8194"/><path d="M1222.4 661.325l13-34-17.5 15.5-3-2.5-18.5 19 18.5-6.5 7.5 8.5z" class="E"/><path d="M1273.9 572.325l6 3.5 3.5-25-43 25 20.5-3.5 2.5 4.5 10.5-4.5z" fill="#ffccc0"/><path d="M377.3 952c3.45.098 6.6 1.997 8.295 5.004l8.038 14.26-12.232 1.183a14.76 14.76 0 0 1-15.05-9.022l-4.94-11.873 15.9.45z" fill="#3a9a63"/><path d="M239.825 897.327a5 5 0 0 1 3.412 3.546l1.074 4.176-3.803-.635a5 5 0 0 1-4.133-4.271l-.534-4.005 3.984 1.2zm219.617 31.74a3 3 0 0 1 2.047 2.128l1.355 5.27-5.26-.878a3 3 0 0 1-2.48-2.563l-.73-5.47 5.068 1.512zM77.727 885.7a3 3 0 0 0-2.952.057l-4.685 2.77 4.34 3.1a3 3 0 0 0 3.566-.059l4.384-3.353-4.653-2.513z" fill="#21825b"/><path d="M425.9 652.825l18 9.5-26.5-7-21.5-27-4 6-11.5-30 13.5 17 32 31.5z" fill="url(#N)"/><path d="M554.9 737.325l-2.5-9 44.5 57 14.5 26-18.5-26-38-48z" fill="url(#O)"/><g fill="#9f646e"><path opacity=".4" d="M1005.18 594.884c-5.647.462-8.52 2.833-10.038 4-.582.444-1.305.282-1.813-.244-2.888-3-6.66-5.954-11.406-8.006-1.056-.456-1.77 1.074-.893 1.818 3.76 3.194 6.816 7.036 7.9 9.893.33.86 1.045 1.583 1.96 1.7l5.076.594c1.013.118 1.7-1.016 1.105-1.85-.408-.583-.206-1.396.424-1.727 3.386-1.776 5.456-2.833 7.536-3.455 2.2-.658 2.44-2.9.14-2.702z"/><path opacity=".2" d="M942.536 604.497c3.408.28 5.142 1.7 6.057 2.408.352.267.788.17 1.094-.148 1.743-1.804 4.02-3.592 6.882-4.83.637-.275 1.068.648.54 1.097-2.27 1.927-4.113 4.245-4.773 5.97-.198.518-.63.955-1.182 1.02l-3.062.358c-.61.07-1.02-.613-.667-1.117.247-.352.125-.842-.256-1.042-2.04-1.07-3.292-1.7-4.55-2.084-1.333-.398-1.47-1.744-.083-1.63z"/></g><path d="M469.9 660.325l-6-14 3 16 26 35 15 32.5 25.5 25-21.5-27.5-16-32.5-26-34.5z" fill="url(#P)"/><path d="M1140.4 585.825l-82 103.5 85-99.5 63-18.5 48.5-55.5-54.5 49.5-60 20.5z" fill="url(#Q)"/><path d="M920.512 324.282c-80.474 8.498-82.86 73.654-73.992 105.17l303.3-55.922 432.46-51.465c4.75-145.74 11.4-438.553 0-443.87s-16.67 4.3-17.9 9.775c-19.34 7.194-25.28 25.415-25.83 33.626-19.54-4.692-29.15 4.692-37.76 23.07s-37.43 10.948-28.82-18.377c6.9-23.46-11.92-31.93-22.2-33.234 5.85-1.825 11.8-9.932-11.26-27.762-28.82-22.286-63.93-9.384-70.88 19.55-5.57 23.147 12.9 37.275 22.85 41.446-31.47 16.813-30.8 37.145-15.9 48.484 14.9 11.34 44.4 45.747 5.96 44.965-30.73-.626-39.3 21.635-39.74 32.843-22.53-16.422-55-7.82-54 19.16.8 21.583-11.82 25.154-18.22 24.242-93.54-.313-99.48 57.216-90.76 86.02-31.13 4.692-39.74 17.204-41.26 29.325s-29.62 40.722-53.14 23.07c-18.8-14.122-35.22-10.055-41.07-6.256-2.38 14.39-17.9 21.935-25.35 23.91-64.447-8.5-91.2 44.617-96.518 72.237z" fill="url(#R)" class="C"/><path d="M390.893 902.013c-100.126-38.37-312.52-28.978-406.202-19.486l11.715 312.793h646.198c154.543-12.5 883.637-88.98 811.997-88.98-376.55 0-719.043-72.24-1063.707-204.327z" class="B"/><defs><linearGradient id="B" x1="730.538" y1="583.043" x2="730.998" y2="738.322" xlink:href="#W"><stop stop-color="#ffb648"/><stop offset="1" stop-color="#fdff96"/></linearGradient><linearGradient id="C" x1="-101" y1="-49" x2="163" y2="457" xlink:href="#W"><stop stop-color="#ffbbac"/><stop offset="1" stop-color="#ffbbac" stop-opacity="0"/></linearGradient><linearGradient id="D" x1="1.177" y1="485.383" x2="365.136" y2="579.19" xlink:href="#W"><stop stop-color="#feb12f"/><stop offset="1" stop-color="#efce8c" stop-opacity="0"/></linearGradient><linearGradient id="E" x1="-44.804" y1="622.319" x2="216.179" y2="674.078" xlink:href="#W"><stop stop-color="#f943d1"/><stop offset="1" stop-color="#efce8c" stop-opacity="0"/></linearGradient><linearGradient id="F" x1="-1.125" y1="617.26" x2="167.033" y2="626.299" xlink:href="#W"><stop stop-color="#da941e"/><stop offset="1" stop-color="#efce8c" stop-opacity="0"/></linearGradient><linearGradient id="G" x1="-3.091" y1="385.825" x2="761.909" y2="932.825" xlink:href="#W"><stop stop-color="#ffbbac"/><stop offset="1" stop-color="#ffbbac" stop-opacity="0"/></linearGradient><linearGradient id="H" x1="1009.3" y1="643.352" x2="1029.1" y2="708.155" xlink:href="#W"><stop offset=".022" stop-color="#ffe4b1"/><stop offset="1" stop-color="#ffd078" stop-opacity="0"/></linearGradient><linearGradient id="I" x1="1263.41" y1="701.497" x2="1263.41" y2="1262.04" xlink:href="#W"><stop stop-color="#449963"/><stop offset="1" stop-color="#3c8f5b"/></linearGradient><linearGradient id="J" x1="1012.91" y1="592.325" x2="1361.41" y2="970.825" xlink:href="#W"><stop stop-color="#ffbbac" stop-opacity="0"/><stop offset="1" stop-color="#de7588"/></linearGradient><linearGradient id="K" x1="107.41" y1="779.326" x2="921.41" y2="953.826" xlink:href="#W"><stop stop-color="#de7588"/><stop offset="1" stop-color="#ffbbac"/></linearGradient><linearGradient id="L" x1="485.243" y1="1149.23" x2="485.243" y2="955.667" xlink:href="#W"><stop stop-color="#fff"/><stop offset="1" stop-color="#fff" stop-opacity="0"/></linearGradient><linearGradient id="M" x1="1158.91" y1="974.825" x2="223.91" y2="1147.33" xlink:href="#W"><stop stop-color="#de7588"/><stop offset="1" stop-color="#7c4e56"/></linearGradient><linearGradient id="N" x1="412.16" y1="604.325" x2="432.41" y2="679.325" xlink:href="#W"><stop stop-color="#ffdeac"/><stop offset="1" stop-color="#ffdeac" stop-opacity="0"/></linearGradient><linearGradient id="O" x1="581.91" y1="728.325" x2="581.91" y2="811.325" xlink:href="#W"><stop stop-color="#ffdeac"/><stop offset="1" stop-color="#ffdeac" stop-opacity="0"/></linearGradient><linearGradient id="P" x1="498.66" y1="646.325" x2="498.66" y2="754.825" xlink:href="#W"><stop stop-color="#ffdeac"/><stop offset="1" stop-color="#ffdeac" stop-opacity="0"/></linearGradient><linearGradient id="Q" x1="1156.91" y1="516.325" x2="1156.91" y2="689.325" xlink:href="#W"><stop stop-color="#ffe4b1"/><stop offset="1" stop-color="#ffe4b1" stop-opacity="0"/></linearGradient><linearGradient id="R" x1="1216" y1="-133" x2="1235" y2="370" xlink:href="#W"><stop stop-color="#ffbbac"/><stop offset="1" stop-color="#ffbbac" stop-opacity="0"/></linearGradient><path id="S" d="M131.032 603.2c27.384-5.252 30.76 16.506 31.886 18.006l-9.753 45.39-177.435 82.528-13.13-77.277c7.127-32 23.333-101.06 31.136-121.166 9.753-25.133 24.008-32.636 38.263-32.636s36.763 11.254 37.138 47.64 34.512 42.765 61.896 37.513z"/><path id="T" d="M128.17 736.23l16.426 40.435 68.866 42.33 329.164 3.79-6.318-64.443-25.272-31.6-15.163-32.22-25.903-34.117-6.318-14.53-1.896 8.845 12.005 88.45-29.695-80.87-17.058-8.846-32.222-30.957-32.853-39.803-25.272 58.125-8.845-21.48-23.376-36.644-25.904-8.214-15.794 1.896-31.6-24.64-2.527-11.373-16.427-21.48-3.79 41.698 5.055 24.64-7.582-6.318-7.58 66.97-6.95-10.11-1.895-8.213-13.268-17.058-5.686 106.14-39.17-15.795-3.16 35.38z"/><path id="U" d="M1255.36 542.198l71.15-69.998-16.07 233.52-302.03 47.176 132.2-167.09 59.67-20.656 55.08-49.343v26.393z"/><path id="V" d="M1136.02 640.884l-12.05 21.803 168.7-21.803-9.5-90.08-94.93 56.228-17.2 22.95-35 10.9z"/><linearGradient id="W" gradientUnits="userSpaceOnUse"/></defs></svg>